<?xml version="1.0" encoding="iso-8859-1"?>
<!-- Uploaded to: SVG Repo, www.svgrepo.com, Generator: SVG Repo Mixer Tools -->
<!DOCTYPE svg PUBLIC "-//W3C//DTD SVG 1.1//EN" "http://www.w3.org/Graphics/SVG/1.1/DTD/svg11.dtd">
<svg fill="#FFFFFF" height="800px" width="800px" version="1.1" id="Capa_1" xmlns="http://www.w3.org/2000/svg" xmlns:xlink="http://www.w3.org/1999/xlink"
     viewBox="0 0 442 442" xml:space="preserve">
<path d="M411.989,190.345C411.635,85.327,326.09,0,220.99,0c-105.316,0-190.996,85.679-191,190.994c0,0.06,0.006,0.12,0.007,0.18
	c0.004,0.246,0.015,0.49,0.037,0.731c0.009,0.093,0.023,0.185,0.034,0.278c0.025,0.209,0.054,0.417,0.091,0.622
	c0.018,0.098,0.039,0.195,0.06,0.293c0.043,0.2,0.091,0.397,0.146,0.592c0.027,0.097,0.054,0.193,0.084,0.29
	c0.062,0.199,0.132,0.394,0.206,0.587c0.034,0.088,0.064,0.177,0.1,0.265c0.103,0.249,0.216,0.493,0.339,0.732
	c0.048,0.094,0.102,0.186,0.154,0.278c0.099,0.178,0.2,0.355,0.309,0.527c0.072,0.113,0.15,0.223,0.227,0.334
	c0.092,0.133,0.186,0.264,0.285,0.392c0.084,0.109,0.17,0.217,0.259,0.323c0.112,0.134,0.23,0.264,0.349,0.392
	c0.082,0.088,0.162,0.178,0.248,0.263c0.208,0.208,0.425,0.41,0.652,0.6c0.032,0.027,0.067,0.051,0.1,0.078
	c0.21,0.171,0.428,0.333,0.653,0.488c0.028,0.02,0.054,0.042,0.082,0.062L189.06,303.227c-3.868,1.381-6.642,5.067-6.642,9.41v20
	h-25.844c-5.523,0-10,4.478-10,10V432c0,5.522,4.477,10,10,10h128.832c5.522,0,10-4.478,10-10v-89.363c0-5.522-4.478-10-10-10
	h-25.845v-20c0-4.342-2.773-8.028-6.641-9.409l154.521-103.842c2.746-1.783,4.569-4.868,4.569-8.386
	C412.01,190.78,412.003,190.562,411.989,190.345z M185.526,23.703c-6.193,9.375-11.789,21.463-16.684,36.148
	c-9.754,29.263-15.859,66.415-17.638,106.511c-14.36-11.316-32.255-17.679-51.058-17.679c-17.458,0-34.208,5.604-48.078,15.649
	C63.078,94.314,116.737,38.27,185.526,23.703z M54.538,188.729c11.819-12.693,28.261-20.045,45.607-20.045
	c20.94,0,40.399,10.419,52.051,27.869c0.046,0.069,0.102,0.129,0.15,0.197l42.936,86.562L54.538,188.729z M220.99,290.132
	l-48.729-98.241c11.836-14.627,29.617-23.208,48.619-23.208c19.075,0,36.918,8.648,48.753,23.378L220.99,290.132z M239.562,322.637
	v10h-37.143v-10H239.562z M275.406,422H166.574v-29.363h108.832V422z M275.406,352.637v20H166.574v-20H275.406z M246.699,283.311
	l43.46-87.62c11.712-16.928,30.865-27.007,51.457-27.007c17.58,0,34.112,7.343,45.862,20.021L246.699,283.311z M341.616,148.684
	c-18.715,0-36.527,6.306-50.853,17.523c-1.171-26.021-4.174-51.038-8.865-73.43c-1.132-5.404-6.425-8.871-11.838-7.736
	c-5.405,1.132-8.869,6.432-7.736,11.838c4.374,20.882,7.213,44.22,8.385,68.563c-14.148-10.729-31.553-16.759-49.829-16.759
	c-18.189,0-35.514,5.975-49.626,16.607C175.508,74.632,201.731,20,220.99,20c10.804,0,23.377,17.282,32.814,45.103
	c1.413,4.166,5.302,6.791,9.469,6.791c1.065,0,2.148-0.172,3.213-0.533c5.23-1.773,8.032-7.452,6.258-12.682
	c-4.804-14.163-10.274-25.854-16.308-34.979c68.777,14.556,122.431,70.574,133.467,140.568
	C376.044,154.264,359.228,148.684,341.616,148.684z"/>
</svg>